<svg width="40" height="40" viewBox="0 0 40 40" fill="none" xmlns="http://www.w3.org/2000/svg">
<path d="M7.63172 11.2517C5.58372 11.2517 3.93589 12.9466 4.00652 15.0181C4.07714 16.9013 5.60726 18.4315 7.49048 18.5021C9.56203 18.5727 11.2569 16.9249 11.2569 14.8769V13.5351C11.2569 12.2639 12.2692 11.2517 13.5403 11.2517H14.8351C16.8124 11.2517 18.4603 9.69801 18.5074 7.74416C18.578 5.69615 16.9302 4.02479 14.9057 4.00125C12.8812 3.97771 11.2569 5.67261 11.2569 7.69708V9.20366C11.2569 10.3336 10.3389 11.2517 9.20893 11.2517H7.63172Z" fill="#0CF274"/>
<path d="M11.2569 25.1169C11.2569 23.0689 9.56203 21.4211 7.49048 21.4917C5.60726 21.5623 4.07714 23.0924 4.00652 24.9757C3.93589 27.0472 5.58372 28.7421 7.63172 28.7421H8.97352C10.2447 28.7421 11.2569 29.7544 11.2569 31.0255V32.3202C11.2569 34.2976 12.8106 35.9455 14.7644 35.9925C16.8124 36.0632 18.4838 34.4153 18.5074 32.3909C18.5309 30.3664 16.836 28.7421 14.8115 28.7421H13.3049C12.175 28.7421 11.2569 27.824 11.2569 26.6941V25.1169Z" fill="#0CF274"/>
<path d="M17.4245 29.8014C15.965 28.3419 13.611 28.389 12.1985 29.8956C10.9274 31.2845 10.9274 33.4502 12.1985 34.8155C13.611 36.3221 15.965 36.3692 17.4245 34.9097L18.3661 33.9681C19.2606 33.0735 20.6966 33.0735 21.5911 33.9681L22.5092 34.8861C23.8981 36.275 26.158 36.3456 27.5939 35.0038C29.077 33.5914 29.124 31.2609 27.6881 29.825C26.2757 28.389 23.9216 28.4126 22.5092 29.8485L21.4499 30.9078C20.6495 31.7082 19.3548 31.7082 18.5544 30.9078L17.4245 29.8014Z" fill="#0CF274"/>
<path d="M25.1222 28.7421C23.0742 28.7421 21.4264 30.437 21.497 32.5086C21.5676 34.3918 23.0977 35.9219 24.9809 35.9925C27.0525 36.0632 28.7474 34.4153 28.7474 32.3673V31.0255C28.7474 29.7544 29.7596 28.7421 31.0308 28.7421H32.3255C34.3029 28.7421 35.9507 27.1885 35.9978 25.2346C36.0684 23.1866 34.4206 21.5152 32.3961 21.4917C30.3717 21.4682 28.7474 23.1631 28.7474 25.1875V26.6941C28.7474 27.8241 27.8293 28.7421 26.6994 28.7421H25.1222Z" fill="#0CF274"/>
<path d="M5.06583 22.551C3.60633 24.0105 3.65341 26.3645 5.15999 27.777C6.54887 29.0481 8.71458 29.0481 10.0799 27.777C11.5865 26.3645 11.6336 24.0105 10.1741 22.551L9.23247 21.6094C8.33793 20.7149 8.33793 19.2789 9.23247 18.3844L10.1505 17.4663C11.5394 16.0774 11.61 13.8176 10.2682 12.3816C8.85582 10.8986 6.52533 10.8515 5.08937 12.2874C3.65341 13.6999 3.67695 16.0539 5.11291 17.4663L6.17222 18.5256C6.9726 19.326 6.9726 20.6207 6.17222 21.4211L5.06583 22.551Z" fill="#0CF274"/>
<path d="M29.8067 22.551C28.3472 24.0105 28.3943 26.3645 29.9009 27.777C31.2897 29.0481 33.4555 29.0481 34.8208 27.777C36.3274 26.3645 36.3745 24.0105 34.915 22.551L33.9733 21.6094C33.0788 20.7149 33.0788 19.2789 33.9733 18.3844L34.8914 17.4663C36.2803 16.0774 36.3509 13.8176 35.0091 12.3816C33.5967 10.8986 31.2662 10.8515 29.8302 12.2874C28.3943 13.6999 28.4178 16.0539 29.8538 17.4663L30.9131 18.5256C31.7135 19.326 31.7135 20.6207 30.9131 21.4211L29.8067 22.551Z" fill="#0CF274"/>
<path d="M25.1222 11.2517C27.1243 11.2517 28.7474 9.62861 28.7474 7.62646C28.7474 5.62431 27.1243 4.00125 25.1222 4.00125C23.12 4.00125 21.497 5.62431 21.497 7.62646C21.497 9.62861 23.12 11.2517 25.1222 11.2517Z" fill="#0CF274"/>
</svg>
